# xmcd CD database file generated by MAGIX-FreeDB-MP3_Maker_12 v2.0beta1
# 
# Track frame offsets:
#      150
#      13165
#      29474
#      40398
#      54033
#      67243
#      84228
#      97700
#      111746
#      125435
#      142743
#      162297
#      177853
#      193874
#      208230
#      222810
#      237125
#      249990
#      262733
#      278748
# 
# Disc length: 3891 seconds
# 
# Revision: 0 
# Processed by: cddbd v1.5.2PL0 Copyright (c) Steve Scherf et al.
# Submitted via: MAGIX-FreeDB-MP3_Maker_12 v2.0beta1
# 
DISCID=150f3114
DTITLE=Dixie Chicks - Best of Country Line Dancing
DYEAR=1900
DGENRE=
TTITLE0=John Michael Montgomery - Be my Baby Tonight
TTITLE1=Shania Twain - Don't be stupid (you know I love you)
TTITLE2=Diamond Rio - Unbelievable
TTITLE3=Alan Jackson - Pop A Top
TTITLE4=Tim Mc Graw - Indian Outlaw
TTITLE5=Tracy Byrd - I'm From The Country
TTITLE6=Shania Twain - Come On Over
TTITLE7=Randy Travis - The Hole
TTITLE8=Dixie Chicks - I Can Love You Better
TTITLE9=Clint Black - Nothin But Taillights
TTITLE10=John Michael Montgomery - I Swear
TTITLE11=George Strait - I Just Want To Dance With You
TTITLE12=Shania Twain - Honey I'm Home
TTITLE13=Rednex - Cotton Eye Joe
TTITLE14=Alma Jackson - Summertime Blue
TTITLE15=LeAnn Rimes - Big Deal
TTITLE16=Larry Morgan - Go Away
TTITLE17=Joe Dibbie - Third Rock From The Sun
TTITLE18=Shania Twain - Love Gets Me A Everytime
TTITLE19=2 Cowboy - Everybody Gontigon
EXTD=
EXTT0=
EXTT1=
EXTT2=
EXTT3=
EXTT4=
EXTT5=
EXTT6=
EXTT7=
EXTT8=
EXTT9=
EXTT10=
EXTT11=
EXTT12=
EXTT13=
EXTT14=
EXTT15=
EXTT16=
EXTT17=
EXTT18=
EXTT19=
PLAYORDER=
